<!-- Money In Icon -->
<svg xmlns="http://www.w3.org/2000/svg" width="25" height="25" viewBox="0 0 25 25">
  <g fill="none" fill-rule="evenodd">
    <path fill="#4CAF50" d="M18,2H6A2,2,0,0,0,4,4V20a2,2,0,0,0,2,2H18a2,2,0,0,0,2-2V4A2,2,0,0,0,18,2ZM12,17a4.79,4.79,0,0,1-4-2.17,1,1,0,1,0-1.69,1.08,6.77,6.77,0,0,0,6.48,0,1,1,0,0,0-1.69-1.08A4.79,4.79,0,0,1,12,17Zm4-6a1,1,0,0,0-1,1v2a1,1,0,0,0,2,0V12A1,1,0,0,0,16,11ZM12,5a3.3,3.3,0,0,0,3,2.82V8a1,1,0,0,0,2,0V7a3.31,3.31,0,0,0-3-3A3.31,3.31,0,0,0,9,7v1a1,1,0,0,0,2,0V7.82A3.3,3.3,0,0,0,12,5Z"/>
  </g>
</svg>