<svg height="200px" width="200px" version="1.1" id="Layer_1" xmlns="http://www.w3.org/2000/svg" xmlns:xlink="http://www.w3.org/1999/xlink" viewBox="0 0 392.61 392.61" xml:space="preserve" fill="#000000"><g id="SVGRepo_bgCarrier" stroke-width="0"></g><g id="SVGRepo_tracerCarrier" stroke-linecap="round" stroke-linejoin="round"></g><g id="SVGRepo_iconCarrier"> <path style="fill:#6c2bd9;" d="M302.588,244.852l-41.891,41.891c-4.267,4.267-11.119,4.267-15.451,0L105.869,147.365 c-4.267-4.267-4.267-11.119,0-15.451l41.891-41.891L82.467,24.731c-30.901,20.234-61.22,47.127-60.574,58.634 c5.042,94.384,192.97,282.311,287.289,287.354h0.259c11.766,0,38.465-30.125,58.311-60.574L302.588,244.852z"></path> <g> <path style="fill:#6c2bd9;" d="M389.409,300.836l-79.192-79.127c-4.267-4.267-11.119-4.267-15.451,0l-41.891,41.891 L129.013,139.672l41.891-41.891c4.267-4.267,4.267-11.119,0-15.451L91.776,3.203c-3.556-3.556-9.115-4.267-13.446-1.552 C59.582,13.159-2.543,53.24,0.108,84.593C11.227,211.43,230.896,397.676,308.019,392.504c32.323,1.293,71.628-59.863,82.941-78.222 C393.611,309.951,392.964,304.391,389.409,300.836z M309.441,370.719h-0.259C214.863,365.676,26.936,177.749,21.894,83.43 c-0.646-11.507,29.673-38.4,60.574-58.57l65.293,65.293l-41.891,41.826c-4.267,4.267-4.267,11.119,0,15.451l139.313,139.313 c4.267,4.267,11.119,4.267,15.451,0l41.891-41.891l65.293,65.293C347.906,340.593,321.207,370.719,309.441,370.719z"></path> <path style="fill:#6c2bd9;" d="M229.667,62.161c13.705,0.129,19.394,15.386,9.891,27.41c-2.327,4.719-51.717,55.337-52.17,55.143 v20.622h87.596v-24.889h-49.067c4.008-4.202,39.046-39.564,40.404-45.77c13.964-27.927-3.814-56.436-35.556-56.436 c-22.238,0.453-33.745,8.663-45.576,27.345l22.174,13.123C214.475,67.721,221.91,62.161,229.667,62.161z"></path> <polygon style="fill:#6c2bd9;" points="340.988,165.401 367.623,165.401 367.623,135.729 381.716,135.729 381.716,111.68 367.623,111.68 367.623,90.024 340.988,90.024 340.988,111.68 323.405,111.68 365.554,41.151 335.3,41.151 291.017,114.525 291.017,135.729 340.988,135.729 "></polygon> </g> </g></svg>