
<svg version="1.0" xmlns="http://www.w3.org/2000/svg"
 width="50.000000pt" height="50.000000pt" viewBox="0 0 50.000000 50.000000"
 preserveAspectRatio="xMidYMid meet">

<g transform="translate(0.000000,50.000000) scale(0.100000,-0.100000)"
fill="#000000" stroke="none">
<path d="M220 413 l-42 -48 26 -3 c18 -2 26 -9 26 -23 0 -17 -8 -19 -90 -19
-73 0 -90 -3 -90 -15 0 -8 -7 -15 -15 -15 -13 0 -15 -21 -15 -130 l0 -130 215
0 c184 0 215 2 215 15 0 8 9 15 20 15 19 0 20 7 20 130 l0 130 -90 0 c-82 0
-90 2 -90 19 0 14 8 21 26 23 l26 3 -42 48 c-23 26 -45 47 -50 47 -5 0 -27
-21 -50 -47z m228 -137 c18 -19 22 -35 22 -86 0 -51 -4 -67 -22 -86 -22 -23
-28 -24 -178 -24 -150 0 -156 1 -177 24 -33 34 -33 138 0 172 21 23 27 24 177
24 150 0 156 -1 178 -24z m-205 -219 l192 -2 -197 -3 -198 -2 2 113 2 112 3
-107 4 -108 192 -3z"/>
<path d="M245 280 c-62 -24 -79 -111 -32 -158 56 -55 140 -15 140 68 0 63 -58
111 -108 90z"/>
<path d="M111 206 c-9 -10 -8 -16 3 -25 10 -9 16 -8 25 3 9 10 8 16 -3 25 -10
9 -16 8 -25 -3z"/>
<path d="M401 206 c-9 -10 -8 -16 3 -25 10 -9 16 -8 25 3 9 10 8 16 -3 25 -10
9 -16 8 -25 -3z"/>
</g>
</svg>
